<svg xmlns="http://www.w3.org/2000/svg" style="display:none">
  <symbol id="icon-facebook" viewBox="0 0 24 24" fill="none" stroke="currentColor" stroke-width="2" stroke-linecap="round" stroke-linejoin="round">
    <path d="M18 2h-3a5 5 0 0 0-5 5v3H7v4h3v8h4v-8h3l1-4h-4V7a1 1 0 0 1 1-1h3z"/>
  </symbol>

  <symbol id="icon-instagram" viewBox="0 0 24 24" fill="none" stroke="currentColor" stroke-width="2" stroke-linecap="round" stroke-linejoin="round">
    <rect x="2" y="2" width="20" height="20" rx="5" ry="5"/>
    <path d="M16 11.37A4 4 0 1 1 12.63 8 4 4 0 0 1 16 11.37z"/>
    <line x1="17.5" y1="6.5" x2="17.51" y2="6.5"/>
  </symbol>

  <symbol id="icon-youtube" viewBox="0 0 24 24" fill="none" stroke="currentColor" stroke-width="2" stroke-linecap="round" stroke-linejoin="round">
    <path d="M22.54 6.42a2.78 2.78 0 0 0-1.95-1.95C18.88 4 12 4 12 4s-6.88 0-8.59.47a2.78 2.78 0 0 0-1.95 1.95A29 29 0 0 0 1 12a29 29 0 0 0 .46 5.58A2.78 2.78 0 0 0 3.41 19.53C5.12 20 12 20 12 20s6.88 0 8.59-.47a2.78 2.78 0 0 0 1.95-1.95A29 29 0 0 0 23 12a29 29 0 0 0-.46-5.58z"/>
    <polygon points="9.75 15.02 15.5 12 9.75 8.98 9.75 15.02"/>
  </symbol>

  <symbol id="icon-menu" viewBox="0 0 24 24" fill="none" stroke="currentColor" stroke-width="2" stroke-linecap="round">
    <line x1="3" y1="6" x2="21" y2="6"/>
    <line x1="3" y1="12" x2="21" y2="12"/>
    <line x1="3" y1="18" x2="21" y2="18"/>
  </symbol>

  <symbol id="icon-close" viewBox="0 0 24 24" fill="none" stroke="currentColor" stroke-width="2" stroke-linecap="round">
    <line x1="18" y1="6" x2="6" y2="18"/>
    <line x1="6" y1="6" x2="18" y2="18"/>
  </symbol>

  <symbol id="icon-search" viewBox="0 0 24 24" fill="none" stroke="currentColor" stroke-width="2" stroke-linecap="round" stroke-linejoin="round">
    <circle cx="11" cy="11" r="8"/>
    <line x1="21" y1="21" x2="16.65" y2="16.65"/>
  </symbol>

  <symbol id="icon-runner" viewBox="0 0 24 24" fill="currentColor">
    <path d="M13.49 5.48c1.1 0 2-.9 2-2s-.9-2-2-2-2 .9-2 2 .9 2 2 2zm-3.6 13.9l1-4.4 2.1 2v6h2v-7.5l-2.1-2 .6-3c1.3 1.5 3.3 2.5 5.5 2.5v-2c-1.9 0-3.5-1-4.3-2.4l-1-1.6c-.4-.6-1-1-1.7-1-.3 0-.5.1-.8.1l-5.2 2.2v4.7h2v-3.4l1.8-.7-1.6 8.1-4.9-1-.4 2 7 1.4z"/>
  </symbol>

  <symbol id="icon-quotes" viewBox="0 0 24 18" fill="currentColor">
    <path d="M0 18V9.9C0 4.3 3.1 1.1 9.3 0l1.1 1.7C7 2.6 5.2 4.1 4.5 6.5c-.2.7-.3 1.4-.2 2H7V18H0zm13 0V9.9c0-5.6 3.1-8.8 9.3-9.9L23.4 1.7c-3.4.9-5.2 2.4-5.9 4.8-.2.7-.3 1.4-.2 2H20V18h-7z"/>
  </symbol>

  <symbol id="icon-dumbbell" viewBox="0 0 24 24" fill="none" stroke="currentColor" stroke-width="2" stroke-linecap="round" stroke-linejoin="round">
    <path d="M6.5 6.5h11"/>
    <path d="M6.5 17.5h11"/>
    <path d="M20 10v4"/>
    <path d="M4 10v4"/>
    <rect x="2" y="9" width="3" height="6" rx="1"/>
    <rect x="19" y="9" width="3" height="6" rx="1"/>
    <rect x="6" y="6" width="2" height="12" rx="1"/>
    <rect x="16" y="6" width="2" height="12" rx="1"/>
  </symbol>

  <symbol id="icon-heart" viewBox="0 0 24 24" fill="none" stroke="currentColor" stroke-width="2" stroke-linecap="round" stroke-linejoin="round">
    <path d="M20.84 4.61a5.5 5.5 0 0 0-7.78 0L12 5.67l-1.06-1.06a5.5 5.5 0 0 0-7.78 7.78l1.06 1.06L12 21.23l7.78-7.78 1.06-1.06a5.5 5.5 0 0 0 0-7.78z"/>
  </symbol>

  <symbol id="icon-trash" viewBox="0 0 24 24" fill="none" stroke="currentColor" stroke-width="2" stroke-linecap="round" stroke-linejoin="round">
    <polyline points="3 6 5 6 21 6"/>
    <path d="M19 6l-1 14a2 2 0 0 1-2 2H8a2 2 0 0 1-2-2L5 6"/>
    <path d="M10 11v6"/>
    <path d="M14 11v6"/>
    <path d="M9 6V4a1 1 0 0 1 1-1h4a1 1 0 0 1 1 1v2"/>
  </symbol>

  <symbol id="icon-star-hero" viewBox="0 0 36 36" fill="currentColor">
    <path d="M17 0h2v36h-2zM0 17h36v2H0zM5.636 3.222l1.414-1.414 25.456 25.456-1.414 1.414zM3.222 30.364L28.678 4.908l1.414 1.414L4.636 31.778z"/>
  </symbol>
</svg>
